<?xml version="1.0" standalone="no"?>
<!DOCTYPE svg PUBLIC "-//W3C//DTD SVG 20010904//EN"
 "http://www.w3.org/TR/2001/REC-SVG-20010904/DTD/svg10.dtd">
<svg version="1.0" xmlns="http://www.w3.org/2000/svg"
 width="600.000000pt" height="600.000000pt" viewBox="0 0 600.000000 600.000000"
 preserveAspectRatio="xMidYMid meet">

<g transform="translate(0.000000,600.000000) scale(0.100000,-0.100000)"
fill="#000000" stroke="none">
<path d="M1673 5681 c-41 -29 -163 -180 -163 -200 0 -6 -4 -11 -10 -11 -5 0
-10 -6 -10 -14 0 -8 -3 -16 -8 -18 -13 -5 -113 -160 -152 -233 -20 -38 -52
-108 -70 -155 -18 -47 -39 -99 -46 -116 -8 -17 -15 -40 -17 -50 -2 -11 -7 -28
-11 -39 -19 -51 -27 -79 -60 -205 -19 -74 -34 -142 -34 -150 0 -32 -13 -123
-18 -132 -17 -27 -24 -474 -9 -600 l8 -66 -39 8 c-72 16 -138 21 -311 26 -164
4 -223 -3 -223 -25 0 -16 29 -20 200 -26 91 -3 192 -8 225 -11 168 -16 171
-19 110 -71 -78 -67 -148 -104 -219 -116 -79 -13 -86 -26 -57 -93 12 -26 21
-48 21 -49 0 -3 -48 -13 -100 -20 -89 -14 -253 -83 -270 -115 -9 -17 -8 -20
12 -20 13 0 37 7 53 16 66 35 254 84 321 84 34 0 58 -24 38 -39 -31 -22 -93
-142 -114 -221 -19 -69 -17 -305 2 -343 15 -28 49 -37 87 -21 18 8 37 14 41
14 4 0 14 -24 22 -52 15 -52 16 -98 3 -129 -14 -37 73 -61 208 -58 74 2 108
-2 125 -12 12 -7 22 -17 22 -20 0 -14 173 -121 224 -139 56 -19 165 -48 236
-61 25 -5 61 -15 80 -23 93 -37 261 -76 326 -76 47 0 73 -20 51 -39 -8 -6 -20
-30 -27 -53 -8 -24 -17 -45 -20 -48 -3 -3 -10 -18 -15 -35 -10 -29 -11 -30
-85 -30 -41 -1 -93 -5 -115 -9 -65 -14 -183 -85 -245 -146 -23 -23 -110 -159
-125 -194 -7 -17 -18 -56 -25 -86 -7 -30 -17 -60 -21 -66 -12 -15 -22 -119
-22 -224 -1 -143 83 -373 168 -462 43 -45 46 -77 18 -163 -11 -33 -28 -98 -38
-145 -9 -47 -26 -123 -37 -170 -11 -47 -22 -118 -25 -157 l-6 -73 1478 0
c1279 0 1476 2 1472 14 -3 8 -11 50 -17 93 -5 43 -23 126 -39 185 l-29 107 20
18 c11 10 55 59 96 108 42 50 99 115 126 146 66 73 118 136 133 163 17 29 16
87 -2 113 -14 20 -10 23 88 89 56 38 117 82 135 99 65 58 167 166 176 185 5
11 13 20 18 20 4 0 8 6 8 14 0 8 7 16 15 20 8 3 15 12 15 21 0 8 4 15 9 15 5
0 22 21 39 47 34 56 40 108 13 125 -16 10 -9 18 64 72 134 99 163 122 232 183
69 61 187 206 176 217 -4 3 -2 6 4 6 13 0 54 63 73 110 8 19 17 37 20 40 3 3
14 30 24 62 14 45 15 64 6 97 -10 39 -33 71 -50 71 -5 0 -15 6 -22 13 -20 19
-123 39 -226 44 -100 5 -194 -7 -284 -38 l-57 -19 -26 26 c-24 24 -32 26 -85
22 -51 -4 -59 -2 -63 14 -6 21 22 128 33 128 4 0 23 -6 41 -14 38 -16 72 -7
87 21 19 38 21 274 2 343 -22 80 -83 199 -115 222 -7 5 -6 13 1 25 9 13 23 18
56 17 46 -2 182 -41 233 -68 17 -9 40 -16 53 -16 20 0 21 3 12 20 -18 33 -203
110 -270 112 -16 1 -30 2 -30 3 0 1 9 23 21 49 29 67 22 80 -57 93 -73 13
-151 54 -218 118 -51 47 -62 72 -38 79 29 8 131 15 302 21 171 6 200 10 200
26 0 22 -59 29 -223 25 -159 -4 -200 -7 -282 -21 -26 -4 -33 0 -53 31 -15 23
-20 40 -14 47 29 38 82 345 103 602 19 240 -10 623 -54 708 -17 32 -24 38 -43
33 -24 -6 -24 -6 -24 78 0 47 -4 87 -8 90 -49 30 -337 -4 -547 -66 -136 -40
-311 -101 -381 -134 -39 -18 -83 -36 -98 -40 -14 -3 -26 -10 -26 -15 0 -5 -5
-9 -11 -9 -6 0 -39 -13 -73 -30 -50 -24 -78 -30 -161 -35 -55 -3 -131 -8 -168
-10 -127 -8 -190 -67 -191 -179 -1 -59 -2 -61 -26 -58 -14 1 -44 10 -68 18
-35 13 -52 14 -87 5 -24 -6 -59 -11 -77 -11 l-33 0 0 58 c0 44 -6 64 -24 88
-45 62 -105 81 -253 83 -47 1 -48 2 -73 52 -28 55 -88 144 -117 172 -10 10
-24 30 -33 46 -8 16 -27 42 -42 59 -15 16 -50 55 -78 86 -68 77 -213 220 -228
225 -7 2 -19 12 -27 21 -18 20 -123 79 -165 92 -66 21 -80 19 -122 -11z m947
-862 c65 -15 80 -32 80 -93 0 -57 -51 -300 -78 -374 -20 -54 -6 -49 -217 -78
-124 -17 -373 -44 -412 -44 -12 0 -33 10 -47 23 -25 23 -69 124 -61 138 3 4 1
9 -3 11 -5 1 -19 70 -32 151 -29 185 -23 217 43 241 23 9 74 20 112 25 100 12
561 13 615 0z m1320 1 c194 -23 205 -41 170 -267 -13 -81 -27 -150 -32 -151
-4 -2 -6 -7 -3 -11 8 -14 -36 -115 -61 -138 -14 -13 -35 -23 -47 -23 -39 0
-288 27 -412 44 -211 29 -197 24 -217 78 -27 74 -78 317 -78 374 0 59 16 79
76 93 54 12 500 13 604 1z m-1748 -1063 l33 -14 12 -122 c7 -67 17 -129 24
-137 33 -41 64 14 74 134 7 86 12 91 53 68 35 -19 122 -107 122 -123 0 -29
-52 -81 -103 -104 -40 -18 -70 -24 -132 -24 -71 0 -88 4 -147 33 -36 18 -80
48 -97 67 -55 63 -76 188 -39 232 10 13 27 14 90 10 42 -4 92 -13 110 -20z
m1707 9 c36 -43 14 -169 -40 -231 -17 -19 -61 -49 -97 -67 -59 -29 -76 -33
-147 -33 -62 0 -92 6 -132 24 -51 23 -103 75 -103 104 0 16 87 104 122 123 41
23 46 18 53 -68 10 -120 41 -174 74 -134 7 8 17 69 24 136 13 134 14 134 90
149 70 14 143 13 156 -3z m929 -1374 l82 -5 -85 -83 c-47 -45 -85 -86 -85 -89
0 -8 -92 -119 -102 -123 -5 -2 -8 -7 -8 -12 0 -5 -14 -31 -31 -58 -30 -49 -31
-49 -64 -40 -43 14 -93 3 -127 -26 -15 -13 -48 -66 -73 -117 -26 -51 -50 -88
-53 -83 -14 19 -88 72 -142 101 -62 34 -111 46 -187 48 -62 2 -76 11 -93 67
-8 24 -17 48 -21 53 -4 6 -12 22 -17 36 l-10 25 70 3 c72 3 204 32 248 56 14
8 77 30 140 50 63 20 123 41 133 46 10 5 50 21 90 35 82 30 137 60 187 103 21
19 41 29 50 25 8 -4 52 -9 98 -12z m-1778 -411 c16 -5 -15 -10 -90 -15 -141
-9 -304 -44 -391 -84 -81 -37 -140 -89 -209 -186 -44 -63 -56 -74 -61 -59 -4
10 -8 21 -8 24 -2 13 167 170 210 197 91 56 196 100 257 108 26 3 65 10 87 14
51 10 172 10 205 1z m190 -20 c165 -55 287 -135 365 -241 29 -40 33 -53 34
-106 0 -37 8 -78 20 -107 11 -26 19 -47 16 -47 -2 0 -18 26 -36 58 -40 70 -65
105 -103 140 -16 15 -72 71 -125 125 -53 53 -102 97 -108 97 -7 0 -13 3 -13 8
0 4 -27 22 -60 40 -95 53 -91 67 10 33z m-733 -507 c28 -8 60 -14 71 -14 28 0
210 -59 217 -71 4 -5 15 -9 26 -9 10 0 19 -4 19 -8 0 -4 21 -16 48 -25 49 -18
184 -114 238 -170 52 -54 143 -177 181 -244 29 -52 33 -67 22 -74 -29 -17 -87
-19 -151 -4 -38 8 -96 21 -130 29 -35 8 -121 17 -193 21 -71 4 -146 9 -165 11
-108 15 -199 37 -263 64 -40 17 -82 35 -95 40 -30 13 -41 46 -30 90 19 76 -1
279 -33 342 -12 22 0 29 65 38 58 8 98 5 173 -16z"/>
<path d="M1159 2201 c-41 -8 -134 -54 -164 -81 -13 -13 -39 -19 -77 -21 -47
-2 -62 1 -80 19 -33 30 -133 74 -184 80 -39 4 -43 2 -57 -24 -21 -42 -29 -85
-29 -166 0 -54 4 -74 17 -87 16 -15 17 -13 11 28 -8 55 12 197 30 212 17 14
85 -6 158 -47 39 -22 45 -29 32 -36 -9 -5 -16 -16 -16 -23 0 -18 0 -18 43 0
46 19 108 19 154 0 44 -18 66 -5 32 19 -23 16 -23 16 -4 30 20 15 34 22 85 44
14 6 45 12 70 14 l45 3 7 -45 c3 -25 7 -73 7 -107 1 -34 5 -64 11 -68 5 -3 7
-12 3 -20 -3 -8 -1 -15 5 -15 28 0 25 199 -4 268 -14 34 -24 37 -95 23z"/>
<path d="M1432 1965 c-7 -14 -20 -25 -31 -25 -29 0 -35 -17 -11 -30 17 -9 20
-17 15 -40 -4 -16 -3 -34 0 -40 11 -18 34 8 41 46 3 19 12 34 20 34 17 0 17
-5 4 -49 -19 -66 20 -64 43 2 17 49 7 87 -22 87 -10 0 -21 9 -24 20 -7 27 -21
25 -35 -5z"/>
<path d="M310 1961 c0 -15 73 -71 92 -71 31 0 20 19 -29 50 -49 32 -63 36 -63
21z"/>
<path d="M706 1963 c-3 -3 -6 -14 -6 -24 0 -10 -13 -22 -32 -29 -26 -10 -29
-14 -15 -17 13 -3 16 -10 12 -21 -4 -10 -10 -26 -13 -37 -5 -19 -5 -19 20 -3
25 17 26 17 32 -13 8 -42 26 -36 26 9 0 32 5 41 25 50 14 6 25 8 25 3 0 -5 -7
-11 -15 -15 -22 -8 -18 -44 6 -57 18 -9 25 -7 46 16 23 24 24 28 9 44 -9 10
-16 22 -16 28 0 17 -28 23 -55 13 -23 -9 -25 -7 -25 20 0 29 -12 45 -24 33z"/>
<path d="M1180 1942 c0 -5 -6 -17 -14 -27 -12 -16 -16 -17 -29 -6 -23 19 -40
5 -26 -22 10 -18 8 -25 -22 -49 -18 -15 -37 -28 -41 -28 -4 0 -8 -7 -8 -15 0
-8 3 -15 6 -15 11 0 50 23 73 44 17 15 25 17 28 9 3 -7 12 -13 20 -13 12 0 14
7 10 29 -5 22 0 34 19 51 29 28 31 50 4 50 -11 0 -20 -4 -20 -8z"/>
<path d="M894 1925 c-20 -15 -17 -17 26 -20 14 -1 37 -5 53 -10 21 -6 27 -4
27 9 0 17 -37 36 -69 36 -9 0 -26 -7 -37 -15z"/>
<path d="M280 1912 c0 -11 39 -46 69 -62 40 -21 47 4 9 33 -37 27 -78 43 -78
29z"/>
<path d="M472 1898 c3 -7 23 -14 46 -16 33 -2 42 0 42 12 0 12 -11 16 -46 16
-32 0 -44 -4 -42 -12z"/>
<path d="M1608 1893 c-20 -3 -28 -10 -28 -24 0 -16 7 -19 44 -19 27 0 48 6 56
15 7 9 11 17 9 19 -9 7 -56 12 -81 9z"/>
<path d="M1240 1860 c-13 -9 -13 -11 0 -20 35 -23 128 -1 103 23 -10 11 -86 8
-103 -3z"/>
<path d="M260 1850 c0 -10 81 -60 98 -60 23 0 12 20 -25 45 -38 25 -73 33 -73
15z"/>
<path d="M455 1840 c-3 -4 2 -13 10 -20 15 -13 133 -3 118 10 -12 11 -122 20
-128 10z"/>
<path d="M886 1841 c-11 -18 15 -33 54 -33 44 1 76 17 49 26 -28 9 -99 14
-103 7z"/>
<path d="M1275 1763 c-22 -90 -87 -121 -272 -129 -234 -11 -378 26 -412 107
-17 42 -41 52 -41 19 0 -36 29 -79 71 -106 117 -73 483 -78 597 -7 53 33 79
66 88 111 5 25 3 32 -9 32 -8 0 -18 -12 -22 -27z"/>
</g>
</svg>
